<svg width="43" height="16" viewBox="0 0 43 16" fill="none" xmlns="http://www.w3.org/2000/svg">
<path d="M5.952 14.084C5.776 14.084 5.584 14.024 5.376 13.904C5.176 13.784 5.028 13.656 4.932 13.52C4.828 13.368 4.776 13.212 4.776 13.052C4.776 12.86 4.832 12.72 4.944 12.632C4.936 12.608 4.932 12.584 4.932 12.56C4.932 12.536 4.932 12.512 4.932 12.488C4.932 12.424 4.94 12.356 4.956 12.284C4.972 12.212 4.996 12.148 5.028 12.092L5.076 12.008C4.78 12.16 4.496 12.264 4.224 12.32C3.96 12.384 3.712 12.416 3.48 12.416C3 12.416 2.568 12.336 2.184 12.176C1.808 12.024 1.508 11.784 1.284 11.456C1.068 11.128 0.96 10.708 0.96 10.196C0.96 9.796 1.04 9.432 1.2 9.104C1.36 8.768 1.564 8.476 1.812 8.228C1.852 8.164 1.876 8.096 1.884 8.024C1.9 7.944 1.908 7.876 1.908 7.82C1.908 7.684 1.872 7.56 1.8 7.448C1.728 7.328 1.648 7.28 1.56 7.304C1.552 7.304 1.544 7.308 1.536 7.316C1.536 7.316 1.532 7.316 1.524 7.316C1.484 7.316 1.464 7.3 1.464 7.268C1.464 7.212 1.5 7.168 1.572 7.136C1.652 7.08 1.736 7.052 1.824 7.052C1.936 7.052 2.028 7.104 2.1 7.208C2.172 7.304 2.208 7.432 2.208 7.592C2.192 7.728 2.156 7.856 2.1 7.976C2.436 7.704 2.8 7.496 3.192 7.352C3.584 7.208 3.94 7.136 4.26 7.136C4.812 7.136 5.212 7.28 5.46 7.568C5.708 7.848 5.832 8.168 5.832 8.528C5.832 8.816 5.74 9.104 5.556 9.392C5.38 9.672 5.14 9.904 4.836 10.088C4.54 10.272 4.216 10.364 3.864 10.364C3.656 10.364 3.448 10.328 3.24 10.256C3.232 10.248 3.224 10.244 3.216 10.244C3.208 10.244 3.2 10.24 3.192 10.232C3.064 10.192 2.944 10.104 2.832 9.968C2.728 9.832 2.676 9.656 2.676 9.44C2.676 9.248 2.716 9.044 2.796 8.828C2.884 8.604 3 8.464 3.144 8.408C3.192 8.392 3.224 8.384 3.24 8.384C3.272 8.384 3.296 8.392 3.312 8.408C3.336 8.416 3.352 8.424 3.36 8.432C3.272 8.472 3.228 8.552 3.228 8.672C3.228 8.736 3.244 8.808 3.276 8.888C3.316 8.96 3.356 9.016 3.396 9.056C3.452 9.112 3.508 9.176 3.564 9.248C3.628 9.32 3.68 9.42 3.72 9.548C3.728 9.58 3.732 9.612 3.732 9.644C3.74 9.668 3.744 9.696 3.744 9.728C3.744 9.824 3.724 9.916 3.684 10.004C3.644 10.092 3.58 10.16 3.492 10.208C3.54 10.216 3.584 10.224 3.624 10.232C3.672 10.232 3.72 10.232 3.768 10.232C4.088 10.232 4.38 10.144 4.644 9.968C4.908 9.792 5.12 9.572 5.28 9.308C5.448 9.044 5.532 8.78 5.532 8.516C5.532 8.196 5.44 7.92 5.256 7.688C5.08 7.448 4.748 7.328 4.26 7.328C3.828 7.328 3.436 7.42 3.084 7.604C2.74 7.78 2.44 8.016 2.184 8.312C1.928 8.608 1.732 8.936 1.596 9.296C1.46 9.648 1.392 9.996 1.392 10.34C1.392 10.668 1.46 10.972 1.596 11.252C1.74 11.54 1.96 11.772 2.256 11.948C2.56 12.124 2.952 12.216 3.432 12.224C3.304 12.184 3.196 12.12 3.108 12.032C3.028 11.952 2.988 11.86 2.988 11.756C2.988 11.644 3.024 11.564 3.096 11.516C3.176 11.468 3.252 11.444 3.324 11.444C3.372 11.444 3.404 11.452 3.42 11.468C3.436 11.492 3.416 11.52 3.36 11.552C3.304 11.584 3.276 11.644 3.276 11.732C3.276 11.812 3.3 11.888 3.348 11.96C3.38 12.016 3.432 12.068 3.504 12.116C3.584 12.172 3.68 12.2 3.792 12.2H3.816C4.2 12.2 4.588 12.108 4.98 11.924C5.372 11.74 5.764 11.496 6.156 11.192C6.548 10.888 6.936 10.552 7.32 10.184C7.704 9.816 8.076 9.444 8.436 9.068C8.356 9.092 8.26 9.104 8.148 9.104V9.116C8.06 9.268 7.896 9.344 7.656 9.344C7.512 9.344 7.364 9.304 7.212 9.224C7.052 9.136 6.896 8.984 6.744 8.768C6.6 8.552 6.528 8.352 6.528 8.168C6.528 8.144 6.528 8.12 6.528 8.096C6.536 8.064 6.544 8.036 6.552 8.012C6.576 7.94 6.604 7.896 6.636 7.88C6.668 7.856 6.692 7.844 6.708 7.844C6.676 7.988 6.728 8.096 6.864 8.168C7.008 8.232 7.132 8.264 7.236 8.264C7.26 8.264 7.284 8.264 7.308 8.264C7.34 8.256 7.368 8.252 7.392 8.252C7.456 8.252 7.524 8.26 7.596 8.276C7.676 8.284 7.76 8.308 7.848 8.348C7.96 8.404 8.052 8.492 8.124 8.612C8.204 8.724 8.232 8.844 8.208 8.972C8.392 8.972 8.56 8.912 8.712 8.792C9.112 8.368 9.492 7.956 9.852 7.556C10.22 7.148 10.552 6.792 10.848 6.488C11.152 6.168 11.484 5.844 11.844 5.516C12.204 5.188 12.588 4.904 12.996 4.664C12.844 4.576 12.704 4.496 12.576 4.424C12.448 4.344 12.344 4.284 12.264 4.244C12.048 4.124 11.756 3.996 11.388 3.86C11.02 3.716 10.624 3.596 10.2 3.5C9.776 3.396 9.368 3.344 8.976 3.344C8.416 3.344 7.94 3.468 7.548 3.716C7.164 3.956 6.872 4.26 6.672 4.628C6.48 4.996 6.384 5.372 6.384 5.756C6.384 6.06 6.448 6.348 6.576 6.62C6.712 6.892 6.912 7.112 7.176 7.28C7.448 7.44 7.784 7.52 8.184 7.52C8.224 7.52 8.26 7.52 8.292 7.52C8.332 7.52 8.368 7.516 8.4 7.508C8.48 7.468 8.544 7.412 8.592 7.34C8.648 7.26 8.684 7.192 8.7 7.136C8.716 7.072 8.724 7.016 8.724 6.968C8.724 6.912 8.712 6.86 8.688 6.812C8.672 6.764 8.644 6.736 8.604 6.728C8.572 6.72 8.556 6.704 8.556 6.68C8.556 6.632 8.612 6.608 8.724 6.608C8.828 6.608 8.904 6.64 8.952 6.704C9.008 6.76 9.036 6.832 9.036 6.92C9.036 7.016 9.008 7.108 8.952 7.196C8.864 7.332 8.74 7.432 8.58 7.496C8.948 7.44 9.256 7.328 9.504 7.16C9.752 6.992 9.936 6.796 10.056 6.572C10.184 6.348 10.248 6.128 10.248 5.912C10.248 5.632 10.164 5.36 9.996 5.096C9.828 4.832 9.56 4.676 9.192 4.628C9.16 4.628 9.124 4.628 9.084 4.628C9.052 4.628 9.016 4.636 8.976 4.652C8.904 4.684 8.84 4.736 8.784 4.808C8.736 4.872 8.712 4.936 8.712 5C8.712 5.072 8.74 5.124 8.796 5.156C8.812 5.164 8.82 5.18 8.82 5.204C8.82 5.236 8.8 5.252 8.76 5.252C8.688 5.252 8.616 5.196 8.544 5.084C8.528 5.036 8.52 4.996 8.52 4.964C8.52 4.94 8.528 4.904 8.544 4.856C8.512 4.872 8.492 4.888 8.484 4.904C8.42 4.96 8.308 5.012 8.148 5.06C7.988 5.108 7.828 5.132 7.668 5.132C7.628 5.132 7.592 5.132 7.56 5.132C7.528 5.124 7.492 5.116 7.452 5.108C7.348 5.084 7.256 5.036 7.176 4.964C7.104 4.884 7.068 4.788 7.068 4.676C7.068 4.644 7.076 4.628 7.092 4.628C7.1 4.628 7.14 4.656 7.212 4.712C7.252 4.736 7.304 4.748 7.368 4.748C7.536 4.748 7.68 4.688 7.8 4.568C7.936 4.424 8.092 4.3 8.268 4.196C8.444 4.092 8.604 4.04 8.748 4.04C8.94 4.04 9.088 4.092 9.192 4.196C9.304 4.292 9.38 4.404 9.42 4.532C9.756 4.612 10.008 4.78 10.176 5.036C10.352 5.284 10.44 5.576 10.44 5.912C10.44 6.192 10.352 6.472 10.176 6.752C10 7.032 9.744 7.264 9.408 7.448C9.08 7.624 8.672 7.712 8.184 7.712C7.672 7.712 7.248 7.62 6.912 7.436C6.576 7.244 6.324 7 6.156 6.704C5.988 6.4 5.904 6.076 5.904 5.732C5.904 5.452 5.96 5.164 6.072 4.868C6.016 4.892 5.96 4.912 5.904 4.928C5.856 4.944 5.796 4.956 5.724 4.964C5.732 5.14 5.644 5.316 5.46 5.492C5.276 5.668 5.028 5.756 4.716 5.756C4.484 5.756 4.244 5.712 3.996 5.624C3.748 5.536 3.588 5.408 3.516 5.24C3.492 5.176 3.48 5.128 3.48 5.096C3.48 5.04 3.496 5.004 3.528 4.988C3.584 5.084 3.672 5.132 3.792 5.132C3.88 5.132 3.968 5.108 4.056 5.06C4.152 5.012 4.228 4.96 4.284 4.904C4.348 4.84 4.42 4.772 4.5 4.7C4.588 4.62 4.708 4.552 4.86 4.496C4.932 4.472 5.016 4.46 5.112 4.46C5.24 4.46 5.36 4.492 5.472 4.556C5.592 4.612 5.672 4.708 5.712 4.844C5.816 4.828 5.904 4.804 5.976 4.772C6.048 4.74 6.124 4.676 6.204 4.58C6.428 4.156 6.776 3.796 7.248 3.5C7.728 3.204 8.324 3.056 9.036 3.056C9.22 3.056 9.408 3.072 9.6 3.104C9.8 3.136 10 3.176 10.2 3.224C10.104 3.128 10.056 3.024 10.056 2.912C10.056 2.8 10.088 2.728 10.152 2.696C10.216 2.656 10.276 2.636 10.332 2.636C10.284 2.636 10.26 2.696 10.26 2.816C10.26 2.896 10.28 2.988 10.32 3.092C10.36 3.196 10.42 3.268 10.5 3.308C10.876 3.412 11.228 3.54 11.556 3.692C11.892 3.836 12.16 3.964 12.36 4.076C12.424 4.108 12.532 4.168 12.684 4.256C12.844 4.344 13.02 4.44 13.212 4.544C13.484 4.392 13.764 4.276 14.052 4.196C14.348 4.108 14.648 4.064 14.952 4.064C15.264 4.064 15.508 4.144 15.684 4.304C15.86 4.456 15.948 4.624 15.948 4.808C15.948 4.992 15.852 5.156 15.66 5.3C15.468 5.444 15.16 5.5 14.736 5.468C14.672 5.46 14.58 5.432 14.46 5.384C14.34 5.336 14.204 5.28 14.052 5.216C13.996 5.288 13.932 5.364 13.86 5.444C13.788 5.524 13.716 5.608 13.644 5.696C13.508 5.864 13.364 6.08 13.212 6.344C13.06 6.6 12.916 6.864 12.78 7.136C12.644 7.4 12.52 7.632 12.408 7.832C12.168 8.288 11.848 8.74 11.448 9.188C11.056 9.628 10.616 10.016 10.128 10.352C9.648 10.68 9.152 10.904 8.64 11.024C8.64 11.024 8.692 11.028 8.796 11.036C8.908 11.044 9.04 11.052 9.192 11.06C9.344 11.068 9.492 11.076 9.636 11.084C9.788 11.1 9.9 11.112 9.972 11.12C10.044 11.128 10.136 11.136 10.248 11.144C10.368 11.16 10.492 11.168 10.62 11.168C10.844 11.168 11.052 11.136 11.244 11.072C11.444 11.016 11.544 10.896 11.544 10.712C11.544 10.64 11.528 10.568 11.496 10.496L11.604 10.472C11.74 10.696 11.808 10.896 11.808 11.072C11.808 11.296 11.716 11.464 11.532 11.576C11.348 11.688 11.152 11.744 10.944 11.744C10.648 11.744 10.34 11.692 10.02 11.588C9.7 11.484 9.36 11.38 9 11.276C8.648 11.18 8.264 11.132 7.848 11.132L7.812 11.024C7.844 11.032 7.876 11.036 7.908 11.036C7.94 11.044 7.972 11.048 8.004 11.048C8.276 11.048 8.556 10.952 8.844 10.76C9.132 10.568 9.416 10.324 9.696 10.028C9.976 9.732 10.24 9.424 10.488 9.104C10.744 8.776 10.968 8.48 11.16 8.216C11.2 8.128 11.248 8.056 11.304 8H9.72C8.84 8.984 8.052 9.772 7.356 10.364C6.668 10.948 6.064 11.412 5.544 11.756V11.768H5.52V11.78C5.376 11.868 5.26 11.984 5.172 12.128C5.068 12.288 5.024 12.44 5.04 12.584C5.088 12.56 5.144 12.548 5.208 12.548C5.304 12.548 5.396 12.576 5.484 12.632C5.58 12.688 5.652 12.76 5.7 12.848C5.764 12.96 5.8 13.06 5.808 13.148C5.824 13.244 5.836 13.332 5.844 13.412C5.852 13.516 5.896 13.628 5.976 13.748C6.056 13.868 6.16 13.908 6.288 13.868C6.288 13.876 6.28 13.896 6.264 13.928C6.256 13.968 6.22 14.004 6.156 14.036C6.1 14.068 6.032 14.084 5.952 14.084ZM14.892 5.228C15.124 5.228 15.292 5.18 15.396 5.084C15.508 4.98 15.564 4.872 15.564 4.76C15.564 4.632 15.512 4.516 15.408 4.412C15.304 4.308 15.152 4.256 14.952 4.256C14.696 4.256 14.44 4.292 14.184 4.364C13.928 4.436 13.676 4.532 13.428 4.652C13.532 4.708 13.632 4.764 13.728 4.82C13.832 4.868 13.932 4.912 14.028 4.952C14.228 4.768 14.428 4.592 14.628 4.424L14.7 4.508C14.668 4.548 14.608 4.612 14.52 4.7C14.432 4.788 14.328 4.9 14.208 5.036C14.408 5.132 14.552 5.188 14.64 5.204C14.68 5.212 14.72 5.22 14.76 5.228C14.808 5.228 14.852 5.228 14.892 5.228ZM11.472 7.808C11.848 7.344 12.232 6.884 12.624 6.428C13.016 5.972 13.428 5.536 13.86 5.12C13.756 5.064 13.648 5.008 13.536 4.952C13.432 4.888 13.324 4.828 13.212 4.772C12.78 5.012 12.364 5.308 11.964 5.66C11.572 6.004 11.2 6.368 10.848 6.752C10.504 7.128 10.188 7.48 9.9 7.808H11.472ZM13.3081 11.108C13.2761 11.108 13.2401 11.104 13.2001 11.096C13.1601 11.096 13.1201 11.092 13.0801 11.084C12.8481 11.028 12.6801 10.924 12.5761 10.772C12.4801 10.612 12.4321 10.42 12.4321 10.196C12.4321 10.02 12.4561 9.832 12.5041 9.632C12.5601 9.424 12.6281 9.208 12.7081 8.984C12.8441 8.632 13.0121 8.244 13.2121 7.82C13.4201 7.388 13.6521 6.948 13.9081 6.5C14.1721 6.044 14.4481 5.604 14.7361 5.18C15.0321 4.756 15.3361 4.372 15.6481 4.028C15.8321 3.82 16.0161 3.632 16.2001 3.464C16.3921 3.296 16.5801 3.16 16.7641 3.056C17.0761 2.864 17.3641 2.768 17.6281 2.768C17.7881 2.768 17.9121 2.808 18.0001 2.888C18.0961 2.96 18.1441 3.076 18.1441 3.236C18.1441 3.34 18.1201 3.46 18.0721 3.596C18.0321 3.724 17.9601 3.872 17.8561 4.04C17.6561 4.376 17.3961 4.728 17.0761 5.096C16.7641 5.464 16.4241 5.824 16.0561 6.176C15.6881 6.52 15.3161 6.836 14.9401 7.124C14.5721 7.412 14.2241 7.648 13.8961 7.832C13.7361 8.12 13.5841 8.428 13.4401 8.756C13.2961 9.076 13.1801 9.384 13.0921 9.68C13.0041 9.968 12.9601 10.216 12.9601 10.424C12.9601 10.584 12.9921 10.712 13.0561 10.808C13.1201 10.904 13.2201 10.952 13.3561 10.952C13.5321 10.952 13.7361 10.872 13.9681 10.712C14.2001 10.552 14.4401 10.336 14.6881 10.064C14.9441 9.784 15.1841 9.46 15.4081 9.092C15.4481 9.044 15.4881 9.02 15.5281 9.02C15.5521 9.02 15.5681 9.036 15.5761 9.068C15.5921 9.1 15.5921 9.132 15.5761 9.164C15.1841 9.764 14.8001 10.24 14.4241 10.592C14.0561 10.936 13.6841 11.108 13.3081 11.108ZM13.9801 7.604C14.2361 7.46 14.5321 7.24 14.8681 6.944C15.2121 6.648 15.5601 6.32 15.9121 5.96C16.2641 5.592 16.5881 5.228 16.8841 4.868C17.1881 4.508 17.4241 4.192 17.5921 3.92C17.6801 3.776 17.7441 3.652 17.7841 3.548C17.8241 3.444 17.8441 3.356 17.8441 3.284C17.8441 3.14 17.7801 3.068 17.6521 3.068C17.4841 3.068 17.2601 3.184 16.9801 3.416C16.7801 3.584 16.5921 3.772 16.4161 3.98C16.2401 4.18 16.1161 4.328 16.0441 4.424C15.6761 4.912 15.3201 5.444 14.9761 6.02C14.6321 6.588 14.3001 7.116 13.9801 7.604ZM16.2303 11.108C16.0223 11.108 15.8263 11.06 15.6423 10.964C15.4583 10.86 15.3223 10.696 15.2343 10.472C15.1783 10.328 15.1503 10.164 15.1503 9.98C15.1503 9.756 15.1943 9.536 15.2823 9.32C15.3943 9.056 15.5583 8.796 15.7743 8.54C15.9903 8.284 16.2303 8.052 16.4943 7.844C16.7583 7.636 17.0223 7.472 17.2863 7.352C17.5503 7.224 17.7863 7.16 17.9943 7.16C18.1703 7.16 18.3103 7.208 18.4143 7.304C18.4863 7.376 18.5223 7.48 18.5223 7.616C18.5223 7.792 18.4543 7.996 18.3183 8.228C18.1903 8.452 18.0063 8.648 17.7663 8.816C17.6143 8.92 17.4343 9.008 17.2263 9.08C17.0263 9.144 16.8143 9.176 16.5903 9.176C16.5183 9.176 16.4423 9.172 16.3623 9.164C16.2903 9.156 16.2183 9.144 16.1463 9.128C16.0903 9.192 16.0223 9.296 15.9423 9.44C15.8703 9.576 15.8063 9.728 15.7503 9.896C15.7023 10.064 15.6783 10.224 15.6783 10.376C15.6863 10.584 15.7423 10.732 15.8463 10.82C15.9583 10.9 16.0903 10.94 16.2423 10.94C16.5463 10.94 16.8383 10.844 17.1183 10.652C17.4063 10.452 17.6663 10.208 17.8983 9.92C18.1303 9.632 18.3263 9.356 18.4863 9.092C18.5103 9.06 18.5303 9.044 18.5463 9.044C18.5623 9.036 18.5743 9.032 18.5823 9.032C18.6063 9.032 18.6263 9.044 18.6423 9.068C18.6663 9.092 18.6703 9.124 18.6543 9.164C18.5503 9.332 18.4143 9.532 18.2463 9.764C18.0863 9.996 17.8943 10.22 17.6703 10.436C17.4543 10.644 17.2103 10.816 16.9383 10.952C16.8343 11.008 16.7183 11.048 16.5903 11.072C16.4703 11.096 16.3503 11.108 16.2303 11.108ZM16.4823 9.008C16.8583 9.008 17.1983 8.912 17.5023 8.72C17.8143 8.52 18.0383 8.28 18.1743 8C18.2143 7.936 18.2383 7.876 18.2463 7.82C18.2623 7.764 18.2703 7.72 18.2703 7.688C18.2703 7.552 18.1943 7.484 18.0423 7.484C17.9463 7.484 17.8383 7.508 17.7183 7.556C17.6063 7.604 17.5063 7.66 17.4183 7.724C17.2663 7.836 17.1063 7.976 16.9383 8.144C16.7783 8.304 16.6343 8.464 16.5063 8.624C16.3783 8.776 16.2823 8.896 16.2183 8.984C16.2583 8.992 16.3023 9 16.3503 9.008C16.3983 9.008 16.4423 9.008 16.4823 9.008ZM17.4283 11.708C17.3243 11.708 17.2723 11.652 17.2723 11.54C17.2723 11.436 17.3363 11.312 17.4643 11.168C17.6003 11.024 17.7683 10.876 17.9683 10.724C18.1683 10.564 18.3723 10.416 18.5803 10.28C18.7963 10.144 18.9803 10.028 19.1323 9.932C19.4443 9.724 19.7363 9.532 20.0083 9.356C20.2883 9.18 20.4563 9.076 20.5123 9.044C20.5283 8.844 20.5403 8.664 20.5483 8.504C20.5563 8.336 20.5603 8.176 20.5603 8.024C20.5603 7.792 20.5323 7.632 20.4763 7.544C20.4203 7.448 20.3483 7.4 20.2603 7.4C20.1483 7.4 20.0203 7.456 19.8763 7.568C19.7403 7.68 19.6163 7.804 19.5043 7.94C19.4243 8.028 19.3243 8.156 19.2043 8.324C19.0843 8.492 18.9683 8.66 18.8563 8.828C18.7523 8.996 18.6723 9.128 18.6163 9.224C18.6083 9.232 18.5923 9.24 18.5683 9.248C18.5523 9.256 18.5363 9.26 18.5203 9.26C18.4723 9.26 18.4443 9.232 18.4363 9.176C18.5403 9.008 18.6843 8.772 18.8683 8.468C19.0523 8.164 19.2563 7.888 19.4803 7.64C19.6403 7.464 19.8043 7.324 19.9723 7.22C20.1483 7.116 20.3483 7.064 20.5723 7.064C20.8603 7.064 21.0483 7.164 21.1363 7.364C21.2243 7.556 21.2683 7.784 21.2683 8.048C21.2683 8.16 21.2643 8.268 21.2563 8.372C21.2563 8.476 21.2523 8.56 21.2443 8.624C21.4203 8.536 21.5763 8.44 21.7123 8.336C21.8483 8.232 21.9563 8.152 22.0363 8.096C22.2843 7.912 22.4963 7.716 22.6723 7.508C22.8563 7.292 22.9483 7.036 22.9483 6.74C22.9483 6.7 22.9483 6.656 22.9483 6.608C22.9483 6.56 22.9403 6.512 22.9243 6.464C22.9563 6.408 23.0043 6.38 23.0683 6.38C23.1403 6.38 23.2043 6.42 23.2603 6.5C23.3243 6.572 23.3563 6.684 23.3563 6.836C23.3563 6.988 23.2923 7.14 23.1643 7.292C23.0443 7.444 22.9123 7.588 22.7683 7.724C22.5523 7.924 22.3083 8.12 22.0363 8.312C21.7643 8.496 21.5003 8.668 21.2443 8.828C21.2283 8.988 21.2123 9.14 21.1963 9.284C21.1883 9.42 21.1843 9.56 21.1843 9.704C21.1843 9.8 21.1883 9.904 21.1963 10.016C21.2043 10.12 21.2163 10.232 21.2323 10.352C21.2643 10.616 21.3803 10.748 21.5803 10.748C21.7323 10.748 21.9083 10.68 22.1083 10.544C22.3243 10.392 22.5403 10.184 22.7563 9.92C22.9803 9.648 23.1803 9.36 23.3563 9.056C23.3883 9.04 23.4083 9.032 23.4163 9.032C23.4643 9.032 23.5003 9.06 23.5243 9.116C23.3723 9.396 23.1803 9.688 22.9483 9.992C22.7163 10.288 22.4563 10.54 22.1683 10.748C21.8803 10.948 21.5723 11.048 21.2443 11.048C21.0043 11.048 20.8323 10.984 20.7283 10.856C20.6243 10.728 20.5563 10.532 20.5243 10.268C20.5163 10.18 20.5083 10.088 20.5003 9.992C20.5003 9.896 20.5003 9.804 20.5003 9.716C20.5003 9.628 20.5003 9.544 20.5003 9.464C20.5083 9.376 20.5123 9.304 20.5123 9.248C20.4083 9.312 20.2363 9.42 19.9963 9.572C19.7563 9.724 19.4963 9.9 19.2163 10.1C19.1203 10.172 18.9843 10.272 18.8083 10.4C18.6403 10.528 18.4643 10.668 18.2803 10.82C18.0963 10.972 17.9323 11.124 17.7883 11.276C17.6443 11.428 17.5523 11.568 17.5123 11.696C17.4883 11.704 17.4603 11.708 17.4283 11.708ZM22.8919 13.316C22.8519 13.316 22.7999 13.296 22.7359 13.256C22.6479 13.192 22.5799 13.088 22.5319 12.944C22.4919 12.808 22.4719 12.664 22.4719 12.512C22.4719 12.248 22.5159 12.036 22.6039 11.876C22.6839 11.724 22.7839 11.608 22.9039 11.528C23.0319 11.448 23.1559 11.408 23.2759 11.408C23.3399 11.408 23.3959 11.42 23.4439 11.444H23.4559C23.5759 11.364 23.6999 11.312 23.8279 11.288C23.3879 11.088 23.0279 10.8 22.7479 10.424C22.4759 10.04 22.3399 9.616 22.3399 9.152C22.3399 8.92 22.3759 8.688 22.4479 8.456C22.5279 8.216 22.6519 7.984 22.8199 7.76C23.0679 7.416 23.3959 7.14 23.8039 6.932C23.8759 6.868 23.9239 6.788 23.9479 6.692C23.9719 6.596 23.9839 6.52 23.9839 6.464C23.9759 6.376 23.9519 6.296 23.9119 6.224C23.8799 6.152 23.8359 6.116 23.7799 6.116C23.7319 6.116 23.7079 6.1 23.7079 6.068C23.7079 6.028 23.7399 5.996 23.8039 5.972C23.8519 5.948 23.9039 5.936 23.9599 5.936C24.0479 5.936 24.1159 5.972 24.1639 6.044C24.2199 6.108 24.2479 6.196 24.2479 6.308C24.2479 6.532 24.1559 6.712 23.9719 6.848C24.2039 6.744 24.4439 6.664 24.6919 6.608C24.9479 6.552 25.1999 6.524 25.4479 6.524H25.4839C25.4999 6.524 25.5159 6.528 25.5319 6.536C25.5559 6.536 25.5719 6.532 25.5799 6.524C25.7399 6.524 25.8839 6.5 26.0119 6.452C26.1879 6.372 26.3079 6.272 26.3719 6.152C26.2439 6.12 26.1479 6.044 26.0839 5.924C26.0199 5.804 25.9919 5.68 25.9999 5.552C26.0159 5.416 26.0439 5.308 26.0839 5.228C26.1319 5.148 26.1759 5.076 26.2159 5.012C26.2399 4.972 26.2599 4.924 26.2759 4.868C26.2999 4.804 26.3119 4.74 26.3119 4.676C26.3119 4.612 26.2959 4.556 26.2639 4.508C26.2399 4.452 26.1959 4.412 26.1319 4.388C26.1399 4.372 26.1519 4.36 26.1679 4.352C26.1919 4.336 26.2279 4.328 26.2759 4.328C26.4039 4.328 26.5239 4.392 26.6359 4.52C26.7479 4.64 26.8399 4.788 26.9119 4.964C26.9839 5.132 27.0199 5.288 27.0199 5.432C27.0199 5.64 26.9639 5.812 26.8519 5.948C26.7399 6.084 26.6199 6.156 26.4919 6.164C26.4039 6.356 26.2759 6.488 26.1079 6.56L26.0599 6.572C26.3159 6.62 26.5559 6.696 26.7799 6.8C27.0119 6.904 27.2199 7.036 27.4039 7.196C27.4679 7.26 27.5279 7.328 27.5839 7.4C27.6479 7.472 27.6999 7.548 27.7399 7.628L27.7759 7.7C27.8319 7.804 27.9039 7.876 27.9919 7.916C28.0879 7.956 28.1759 7.976 28.2559 7.976C28.4239 7.976 28.5079 7.932 28.5079 7.844C28.5079 7.804 28.5199 7.784 28.5439 7.784C28.5839 7.784 28.6119 7.82 28.6279 7.892C28.6519 7.996 28.6319 8.08 28.5679 8.144C28.5119 8.208 28.4399 8.24 28.3519 8.24C28.3199 8.24 28.2879 8.236 28.2559 8.228C28.2239 8.212 28.1879 8.2 28.1479 8.192C28.0519 8.16 27.9639 8.088 27.8839 7.976C27.9239 8.12 27.9439 8.252 27.9439 8.372C27.9439 8.604 27.8839 8.812 27.7639 8.996C27.7719 9.028 27.7759 9.06 27.7759 9.092C27.7839 9.116 27.7879 9.144 27.7879 9.176C27.7879 9.28 27.7599 9.388 27.7039 9.5C27.6559 9.604 27.5639 9.696 27.4279 9.776C27.2999 9.848 27.1279 9.884 26.9119 9.884C26.7279 9.884 26.5439 9.86 26.3599 9.812C26.3439 9.804 26.3239 9.8 26.2999 9.8C26.2759 9.8 26.2559 9.8 26.2399 9.8C26.1439 9.8 26.0519 9.82 25.9639 9.86C25.8759 9.892 25.8199 9.94 25.7959 10.004C25.7719 10.06 25.7519 10.104 25.7359 10.136C25.7279 10.16 25.7119 10.152 25.6879 10.112C25.6479 10.048 25.6279 9.976 25.6279 9.896C25.6279 9.768 25.6799 9.652 25.7839 9.548C25.9199 9.42 26.0919 9.324 26.2999 9.26C26.5079 9.188 26.6639 9.16 26.7679 9.176H26.8399C26.7679 9.12 26.7319 9.056 26.7319 8.984V8.936C26.7319 8.848 26.7559 8.78 26.8039 8.732C26.8359 8.7 26.8639 8.692 26.8879 8.708C26.9119 8.724 26.9159 8.752 26.8999 8.792C26.8599 8.888 26.8919 8.972 26.9959 9.044C27.0999 9.116 27.2079 9.144 27.3199 9.128C27.4559 9.072 27.5759 8.992 27.6799 8.888C27.7679 8.736 27.8119 8.572 27.8119 8.396C27.8119 8.212 27.7639 8.02 27.6679 7.82C27.5799 7.62 27.4559 7.448 27.2959 7.304C27.0799 7.112 26.8319 6.972 26.5519 6.884C26.2799 6.796 25.9919 6.752 25.6879 6.752C25.1999 6.752 24.7199 6.86 24.2479 7.076C23.7839 7.292 23.4239 7.588 23.1679 7.964C22.9119 8.34 22.7759 8.736 22.7599 9.152C22.7999 9.088 22.8439 9.028 22.8919 8.972C22.9399 8.916 23.0039 8.864 23.0839 8.816V8.804C23.0839 8.684 23.1479 8.572 23.2759 8.468C23.4039 8.356 23.5639 8.3 23.7559 8.3C23.8759 8.3 24.0079 8.328 24.1519 8.384C24.2959 8.432 24.4239 8.5 24.5359 8.588C24.6559 8.676 24.7279 8.776 24.7519 8.888C24.7519 8.896 24.7519 8.908 24.7519 8.924C24.7599 8.932 24.7639 8.94 24.7639 8.948C24.7639 9.004 24.7439 9.044 24.7039 9.068C24.6719 8.964 24.5879 8.912 24.4519 8.912C24.3959 8.912 24.3399 8.924 24.2839 8.948C24.2279 8.964 24.1799 8.984 24.1399 9.008C24.0839 9.048 24.0159 9.092 23.9359 9.14C23.8639 9.18 23.7679 9.208 23.6479 9.224C23.5439 9.232 23.4359 9.212 23.3239 9.164C23.2199 9.116 23.1479 9.04 23.1079 8.936C23.0279 8.992 22.9519 9.06 22.8799 9.14C22.8159 9.22 22.7839 9.332 22.7839 9.476V9.488C22.7839 9.808 22.8759 10.108 23.0599 10.388C23.2519 10.66 23.4999 10.88 23.8039 11.048C24.1159 11.224 24.4559 11.328 24.8239 11.36C24.9119 11.368 24.9959 11.372 25.0759 11.372C25.1559 11.372 25.2359 11.372 25.3159 11.372C25.2359 11.356 25.1599 11.336 25.0879 11.312C25.0239 11.288 24.9599 11.252 24.8959 11.204C24.7519 11.092 24.6799 10.964 24.6799 10.82C24.6799 10.66 24.7719 10.556 24.9559 10.508C24.9719 10.5 24.9959 10.496 25.0279 10.496C25.0679 10.496 25.0959 10.508 25.1119 10.532C25.1279 10.556 25.1159 10.58 25.0759 10.604C25.0359 10.62 25.0159 10.668 25.0159 10.748C25.0159 10.852 25.0759 10.976 25.1959 11.12C25.3239 11.264 25.4999 11.332 25.7239 11.324C26.2199 11.244 26.6679 11.072 27.0679 10.808C27.4759 10.544 27.8479 10.22 28.1839 9.836C28.5279 9.452 28.8479 9.036 29.1439 8.588C29.4479 8.132 29.7439 7.672 30.0319 7.208C30.3199 6.744 30.6159 6.3 30.9199 5.876C31.2239 5.452 31.5439 5.076 31.8799 4.748C32.2159 4.412 32.5839 4.156 32.9839 3.98C32.5759 3.964 32.1519 3.92 31.7119 3.848C31.2719 3.776 30.8919 3.74 30.5719 3.74C30.0359 3.74 29.5999 3.82 29.2639 3.98C28.9359 4.14 28.6959 4.34 28.5439 4.58C28.3919 4.82 28.3159 5.056 28.3159 5.288C28.3159 5.552 28.3999 5.784 28.5679 5.984C28.7359 6.184 28.9599 6.284 29.2399 6.284C29.4319 6.284 29.6119 6.236 29.7799 6.14C29.9559 6.036 30.0999 5.904 30.2119 5.744C30.3239 5.576 30.3759 5.392 30.3679 5.192C30.3519 5.216 30.3319 5.236 30.3079 5.252C30.2759 5.276 30.2319 5.288 30.1759 5.288C30.0319 5.288 29.9319 5.22 29.8759 5.084C29.8439 5.012 29.8239 4.948 29.8159 4.892C29.8159 4.836 29.8159 4.788 29.8159 4.748C29.8159 4.684 29.7959 4.616 29.7559 4.544C29.7159 4.464 29.6559 4.432 29.5759 4.448C29.5759 4.408 29.6039 4.376 29.6599 4.352C29.6839 4.344 29.7159 4.34 29.7559 4.34C29.8679 4.34 29.9839 4.384 30.1039 4.472C30.2239 4.552 30.3119 4.636 30.3679 4.724C30.4079 4.804 30.4279 4.872 30.4279 4.928C30.4439 4.984 30.4559 5.04 30.4639 5.096C30.4719 5.152 30.4759 5.204 30.4759 5.252C30.4759 5.484 30.4119 5.684 30.2839 5.852C30.1559 6.02 29.9919 6.152 29.7919 6.248C29.5999 6.336 29.3919 6.38 29.1679 6.38C28.9919 6.38 28.8279 6.348 28.6759 6.284C28.7319 6.396 28.7599 6.488 28.7599 6.56C28.7599 6.664 28.7239 6.752 28.6519 6.824C28.5959 6.872 28.5319 6.896 28.4599 6.896C28.3719 6.896 28.2959 6.872 28.2319 6.824C28.1679 6.768 28.1759 6.74 28.2559 6.74C28.3199 6.74 28.3759 6.708 28.4239 6.644C28.4719 6.58 28.4959 6.504 28.4959 6.416C28.4959 6.392 28.4919 6.356 28.4839 6.308C28.4839 6.252 28.4679 6.2 28.4359 6.152C28.4039 6.12 28.3679 6.088 28.3279 6.056C28.2959 6.024 28.2599 5.992 28.2199 5.96L28.2079 5.948C28.1039 5.844 28.0319 5.724 27.9919 5.588C27.9519 5.444 27.9319 5.3 27.9319 5.156C27.9319 4.908 28.0039 4.664 28.1479 4.424C28.2919 4.184 28.5199 3.984 28.8319 3.824C29.1519 3.656 29.5639 3.56 30.0679 3.536C29.9159 3.424 29.8399 3.292 29.8399 3.14C29.8399 3.036 29.8719 2.968 29.9359 2.936C29.9999 2.896 30.0599 2.876 30.1159 2.876C30.0759 2.876 30.0559 2.932 30.0559 3.044C30.0559 3.124 30.0719 3.212 30.1039 3.308C30.1359 3.404 30.1919 3.476 30.2719 3.524C30.4559 3.524 30.6879 3.54 30.9679 3.572C31.2559 3.596 31.5599 3.628 31.8799 3.668C32.2079 3.708 32.5159 3.744 32.8039 3.776C33.0919 3.8 33.3239 3.812 33.4999 3.812C33.6039 3.788 33.7239 3.76 33.8599 3.728C33.9959 3.696 34.1199 3.68 34.2319 3.68C34.3279 3.68 34.3999 3.7 34.4479 3.74C34.4959 3.78 34.5199 3.824 34.5199 3.872C34.5199 4 34.4279 4.072 34.2439 4.088C34.1399 4.088 34.0199 4.084 33.8839 4.076C33.7479 4.06 33.6359 4.052 33.5479 4.052C33.2119 4.188 32.8879 4.424 32.5759 4.76C32.2719 5.096 31.9719 5.488 31.6759 5.936C31.3799 6.384 31.0719 6.856 30.7519 7.352C30.7839 7.344 30.8279 7.34 30.8839 7.34C31.0439 7.34 31.1999 7.396 31.3519 7.508C31.5039 7.62 31.5959 7.776 31.6279 7.976C31.9079 7.856 32.2199 7.676 32.5639 7.436C32.9079 7.196 33.2639 6.924 33.6319 6.62C33.9999 6.308 34.3639 5.992 34.7239 5.672C35.0839 5.352 35.4199 5.052 35.7319 4.772C36.0519 4.492 36.3319 4.264 36.5719 4.088C37.1399 3.664 37.6119 3.356 37.9879 3.164C38.3719 2.972 38.6919 2.848 38.9479 2.792C39.0599 2.768 39.1599 2.756 39.2479 2.756C39.4479 2.756 39.5879 2.804 39.6679 2.9C39.7559 2.988 39.7999 3.076 39.7999 3.164C39.7999 3.276 39.7519 3.34 39.6559 3.356C39.6079 3.252 39.5039 3.2 39.3439 3.2C39.1519 3.2 38.8959 3.272 38.5759 3.416C38.2559 3.56 37.9199 3.744 37.5679 3.968C37.2239 4.192 36.8999 4.424 36.5959 4.664C36.4039 4.816 36.1479 5.02 35.8279 5.276C35.5079 5.524 35.1559 5.796 34.7719 6.092C34.3959 6.38 34.0119 6.664 33.6199 6.944C33.2359 7.224 32.8719 7.472 32.5279 7.688C32.1919 7.896 31.9119 8.044 31.6879 8.132C31.7839 8.404 31.8839 8.74 31.9879 9.14C32.0999 9.532 32.2199 9.924 32.3479 10.316C32.4839 10.716 32.6359 11.076 32.8039 11.396C32.9799 11.716 33.1799 11.928 33.4039 12.032C33.5479 12.096 33.6839 12.128 33.8119 12.128C34.0759 12.128 34.3039 12.04 34.4959 11.864C34.6959 11.696 34.7759 11.5 34.7359 11.276L34.9039 11.24C34.9279 11.464 34.8679 11.668 34.7239 11.852C34.5879 12.044 34.4039 12.192 34.1719 12.296C33.9399 12.408 33.6879 12.464 33.4159 12.464C33.2719 12.464 33.1279 12.444 32.9839 12.404C32.8399 12.364 32.6999 12.304 32.5639 12.224C32.2839 12.048 32.0639 11.8 31.9039 11.48C31.7519 11.16 31.6359 10.808 31.5559 10.424C31.4839 10.032 31.4319 9.648 31.3999 9.272C31.3679 8.888 31.3319 8.552 31.2919 8.264C31.2199 8.288 31.1439 8.3 31.0639 8.3C30.9119 8.3 30.7679 8.268 30.6319 8.204C30.4959 8.132 30.4159 8.032 30.3919 7.904C30.0799 8.368 29.7479 8.82 29.3959 9.26C29.0519 9.692 28.6719 10.084 28.2559 10.436C27.8399 10.78 27.3799 11.052 26.8759 11.252C26.3799 11.46 25.8279 11.564 25.2199 11.564C25.1479 11.564 25.0759 11.56 25.0039 11.552C24.9319 11.552 24.8599 11.548 24.7879 11.54C24.5879 11.524 24.3959 11.488 24.2119 11.432C24.1799 11.424 24.1439 11.416 24.1039 11.408C24.0719 11.408 24.0359 11.408 23.9959 11.408C23.8439 11.408 23.6999 11.448 23.5639 11.528C23.6599 11.624 23.7079 11.748 23.7079 11.9C23.7079 12.028 23.6759 12.144 23.6119 12.248C23.5399 12.368 23.4639 12.456 23.3839 12.512C23.3039 12.576 23.2319 12.628 23.1679 12.668C23.0959 12.7 23.0279 12.76 22.9639 12.848C22.8999 12.936 22.8679 13.024 22.8679 13.112C22.8679 13.184 22.8959 13.248 22.9519 13.304C22.9439 13.304 22.9359 13.304 22.9279 13.304C22.9199 13.312 22.9079 13.316 22.8919 13.316ZM30.9679 8.18C31.0639 8.18 31.1639 8.152 31.2679 8.096C31.2599 8.032 31.2359 7.94 31.1959 7.82C31.1559 7.692 31.0679 7.624 30.9319 7.616C30.8279 7.616 30.7479 7.64 30.6919 7.688C30.6439 7.736 30.6199 7.792 30.6199 7.856C30.6199 7.936 30.6519 8.012 30.7159 8.084C30.7799 8.148 30.8639 8.18 30.9679 8.18ZM25.4719 11.372C25.5199 11.372 25.5759 11.368 25.6399 11.36C25.7119 11.36 25.7519 11.348 25.7599 11.324H25.7239C25.6599 11.324 25.5919 11.328 25.5199 11.336C25.4559 11.352 25.3879 11.364 25.3159 11.372H25.4719ZM36.2682 11.132C36.1082 11.132 35.9682 11.076 35.8482 10.964C35.7282 10.852 35.6682 10.692 35.6682 10.484C35.6682 10.396 35.6882 10.28 35.7282 10.136C35.6162 10.272 35.4842 10.416 35.3322 10.568C35.1882 10.72 35.0282 10.848 34.8522 10.952C34.6842 11.056 34.5122 11.108 34.3362 11.108C34.2402 11.108 34.1562 11.092 34.0842 11.06C33.9562 11.012 33.8642 10.936 33.8082 10.832C33.7602 10.72 33.7362 10.6 33.7362 10.472C33.7362 10.248 33.7802 10.016 33.8682 9.776C33.9642 9.536 34.0482 9.348 34.1202 9.212C34.1122 9.22 34.1002 9.224 34.0842 9.224C34.0522 9.224 34.0202 9.212 33.9882 9.188C33.9642 9.156 33.9642 9.124 33.9882 9.092C34.0442 9.02 34.1282 8.9 34.2402 8.732C34.3602 8.564 34.4922 8.38 34.6362 8.18C34.7802 7.98 34.9122 7.792 35.0322 7.616C35.1602 7.44 35.2562 7.304 35.3202 7.208C35.3842 7.192 35.4762 7.168 35.5962 7.136C35.7242 7.096 35.8402 7.076 35.9442 7.076C36.0642 7.076 36.1522 7.108 36.2082 7.172C36.1202 7.308 35.9962 7.488 35.8362 7.712C35.6762 7.936 35.5002 8.18 35.3082 8.444C35.1242 8.708 34.9482 8.98 34.7802 9.26C34.6122 9.54 34.4722 9.808 34.3602 10.064C34.2562 10.312 34.2042 10.528 34.2042 10.712C34.2042 10.848 34.2762 10.916 34.4202 10.916C34.5882 10.908 34.7842 10.804 35.0082 10.604C35.2402 10.396 35.4762 10.136 35.7162 9.824C35.9642 9.512 36.2002 9.192 36.4242 8.864C36.7842 8.32 37.0642 7.896 37.2642 7.592C37.4642 7.288 37.5642 7.136 37.5642 7.136C37.6282 7.128 37.7162 7.108 37.8282 7.076C37.9482 7.036 38.0602 7.016 38.1642 7.016C38.2842 7.016 38.3602 7.052 38.3922 7.124C38.3362 7.212 38.2202 7.376 38.0442 7.616C37.8762 7.856 37.6842 8.132 37.4682 8.444C37.2602 8.756 37.0602 9.072 36.8682 9.392C36.8042 9.496 36.7322 9.62 36.6522 9.764C36.5722 9.9 36.5002 10.024 36.4362 10.136C36.3642 10.264 36.3162 10.368 36.2922 10.448C36.2762 10.528 36.2682 10.592 36.2682 10.64C36.2682 10.8 36.3482 10.88 36.5082 10.88C36.5962 10.88 36.7042 10.848 36.8322 10.784C36.9602 10.712 37.0802 10.616 37.1922 10.496C37.3442 10.352 37.4962 10.176 37.6482 9.968C37.8082 9.752 37.9922 9.46 38.2002 9.092C38.2162 9.06 38.2522 9.044 38.3082 9.044C38.3482 9.044 38.3722 9.06 38.3802 9.092C38.3882 9.116 38.3842 9.14 38.3682 9.164C38.2162 9.412 38.0682 9.652 37.9242 9.884C37.7882 10.108 37.6202 10.328 37.4202 10.544C37.2362 10.744 37.0402 10.892 36.8322 10.988C36.6322 11.084 36.4442 11.132 36.2682 11.132ZM39.3113 11.12C39.1513 11.12 39.0073 11.072 38.8793 10.976C38.7593 10.88 38.6993 10.744 38.6993 10.568C38.6993 10.368 38.7513 10.152 38.8553 9.92C38.9673 9.688 39.0873 9.48 39.2153 9.296C39.3433 9.104 39.4273 8.98 39.4673 8.924C39.6113 8.732 39.7433 8.536 39.8633 8.336C39.9913 8.128 40.0553 7.96 40.0553 7.832C40.0553 7.712 40.0033 7.636 39.8993 7.604C39.8113 7.572 39.7193 7.54 39.6233 7.508C39.5273 7.468 39.4553 7.444 39.4073 7.436C39.3833 7.476 39.3273 7.572 39.2393 7.724C39.1513 7.868 39.0473 8.036 38.9273 8.228C38.8153 8.412 38.7073 8.592 38.6033 8.768C38.4993 8.944 38.4193 9.076 38.3633 9.164C38.3153 9.22 38.2753 9.248 38.2433 9.248C38.2113 9.248 38.1873 9.232 38.1713 9.2C38.1633 9.168 38.1713 9.132 38.1953 9.092C38.4353 8.716 38.6473 8.364 38.8313 8.036C39.0153 7.708 39.1353 7.5 39.1913 7.412C39.1113 7.356 39.0473 7.26 38.9993 7.124C38.9513 6.988 38.9273 6.848 38.9273 6.704C38.9273 6.544 38.9593 6.4 39.0233 6.272C39.0873 6.144 39.1953 6.08 39.3473 6.08C39.4513 6.08 39.5233 6.132 39.5633 6.236C39.6033 6.332 39.6233 6.444 39.6233 6.572C39.6233 6.684 39.6113 6.792 39.5873 6.896C39.5633 7 39.5433 7.072 39.5273 7.112L39.4433 7.304C39.5393 7.312 39.6833 7.328 39.8753 7.352C40.0673 7.376 40.2673 7.404 40.4753 7.436C40.5953 7.452 40.6913 7.496 40.7633 7.568C40.8433 7.64 40.8833 7.736 40.8833 7.856C40.8833 7.976 40.8433 8.12 40.7633 8.288C40.6833 8.456 40.5473 8.648 40.3553 8.864C40.2593 8.976 40.1433 9.124 40.0073 9.308C39.8713 9.492 39.7433 9.672 39.6233 9.848C39.5033 10.016 39.4153 10.148 39.3593 10.244C39.2553 10.412 39.2033 10.564 39.2033 10.7C39.2033 10.852 39.2873 10.928 39.4553 10.928C39.6393 10.928 39.8353 10.86 40.0433 10.724C40.2513 10.58 40.4553 10.404 40.6553 10.196C40.8553 9.988 41.0313 9.784 41.1833 9.584C41.3433 9.376 41.4593 9.212 41.5313 9.092C41.5633 9.036 41.6073 9.008 41.6633 9.008C41.7033 9.008 41.7233 9.028 41.7233 9.068C41.7233 9.108 41.7153 9.14 41.6993 9.164C41.6193 9.284 41.4873 9.464 41.3033 9.704C41.1273 9.944 40.9153 10.188 40.6673 10.436C40.4193 10.676 40.1433 10.864 39.8393 11C39.7433 11.04 39.6473 11.068 39.5513 11.084C39.4553 11.108 39.3753 11.12 39.3113 11.12Z" fill="white"/>
</svg>
